<?xml version="1.0" encoding="UTF-8"?>
<svg width="19px" height="18px" viewBox="0 0 19 18" version="1.1" xmlns="http://www.w3.org/2000/svg" xmlns:xlink="http://www.w3.org/1999/xlink">
    <title>icon/22px/cloud</title>
    <g id="ðŸŸ¡ï½œé¡µé¢" stroke="none" stroke-width="1" fill="none" fill-rule="evenodd">
        <g id="2-2-é¦–é¡µ-ç§»åŠ¨ç«¯1" transform="translate(-123.000000, -869.000000)">
            <g id="åˆ†ç±»" transform="translate(123.500000, 867.000000)">
                <g id="icon/20px/ä¸“å®¶" transform="translate(0.000000, 2.000000)">
                    <g id="ç¼–ç»„" transform="translate(0.000000, 0.900000)">
                        <path d="M9,7.2 C7.0117749,7.2 5.4,5.5882251 5.4,3.6 C5.4,1.6117749 7.0117749,1.02318154e-12 9,1.02318154e-12 C10.9882251,1.02318154e-12 12.6,1.6117749 12.6,3.6 C12.6,5.5882251 10.9882251,7.2 9,7.2 Z M0.00065168429,15.2991062 C0.388258525,9.92983035 4.26191235,7.2 8.98334134,7.2 C13.7712164,7.2 17.7048837,9.77984197 17.9979143,15.3 C18.0095879,15.5199083 17.9979143,16.2 17.2466999,16.2 L0.727502227,16.2 C0.476712155,16.2 -0.0204617505,15.5915775 0.00065168429,15.2991062 Z" id="Combined-Shape" fill="#FE624C"></path>
                        <path d="M7.35248067,7.2 C7.35248067,8.1098998 8.0901002,8.84751933 9,8.84751933 C9.9098998,8.84751933 10.6475193,8.1098998 10.6475193,7.2" id="è·¯å¾„" stroke="#FFFFFF" stroke-width="0.9"></path>
                        <polygon id="çŸ©å½¢" stroke="#FFFFFF" stroke-width="0.9" stroke-linecap="round" points="8.31838227 8.84751933 9.68161773 8.84751933 10.4614779 13.5266801 9 15.0864003 7.53852215 13.5266801"></polygon>
                    </g>
                </g>
            </g>
        </g>
    </g>
</svg>