<?xml version="1.0" standalone="no"?><!DOCTYPE svg PUBLIC "-//W3C//DTD SVG 1.1//EN" "http://www.w3.org/Graphics/SVG/1.1/DTD/svg11.dtd"><svg t="1598519595158" class="icon" viewBox="0 0 1024 1024" version="1.1" xmlns="http://www.w3.org/2000/svg" p-id="13678" xmlns:xlink="http://www.w3.org/1999/xlink" width="200" height="200"><defs><style type="text/css"></style></defs><path d="M208 32m80 0l448 0q80 0 80 80l0 800q0 80-80 80l-448 0q-80 0-80-80l0-800q0-80 80-80Z" fill="#6CFFB2" p-id="13679"></path><path d="M736 942.4H288a80 80 0 0 1-80-80V912a80 80 0 0 0 80 80h448a80 80 0 0 0 80-80v-49.6a80 80 0 0 1-80 80z" fill="#3DE288" p-id="13680"></path><path d="M736 32H288a80 80 0 0 0-80 80v44.8a80 80 0 0 1 80-80h448a80 80 0 0 1 80 80V112a80 80 0 0 0-80-80z" fill="#FFFFFF" p-id="13681"></path><path d="M720 0H304a128 128 0 0 0-128 128v768a128 128 0 0 0 128 128h416a128 128 0 0 0 128-128V128a128 128 0 0 0-128-128z m80 896a80 80 0 0 1-80 80H304a80 80 0 0 1-80-80V128a80 80 0 0 1 80-80h416a80 80 0 0 1 80 80z" fill="#3A394B" p-id="13682"></path><path d="M512 416a64 64 0 0 0 64-51.36 38.56 38.56 0 0 1-37.44-38.24 38.08 38.08 0 0 1 11.04-26.88A64 64 0 1 0 512 416zM392 96h-80a40 40 0 0 0 0 80h80a40 40 0 0 0 0-80z" fill="#3A394B" p-id="13683"></path><path d="M464 136m-16 0a16 16 0 1 0 32 0 16 16 0 1 0-32 0Z" fill="#3A394B" p-id="13684"></path><path d="M576 816h-128a16 16 0 0 0 0 32h128a16 16 0 0 0 0-32z" fill="#3A394B" p-id="13685"></path></svg>